<mxfile host="app.diagrams.net" modified="2022-12-29T15:51:00.852Z" agent="5.0 (Macintosh; Intel Mac OS X 10_15_7) AppleWebKit/537.36 (KHTML, like Gecko) Chrome/108.0.0.0 Safari/537.36" version="20.7.4" etag="8krUdZlRuJxtf7iXAyCn" type="github">
  <diagram id="OjbAfD4WJxaJ-n6F3qPU" name="Page-1">
    <mxGraphModel dx="1876" dy="661" grid="1" gridSize="10" guides="1" tooltips="1" connect="1" arrows="1" fold="1" page="1" pageScale="1" pageWidth="850" pageHeight="1100" math="0" shadow="0">
      <root>
        <mxCell id="0" />
        <mxCell id="1" parent="0" />
        <mxCell id="Ef1C2Hg81jnyNyhxMtd8-1" value="" style="endArrow=none;html=1;rounded=0;strokeWidth=3;fillColor=#dae8fc;strokeColor=#6c8ebf;edgeStyle=orthogonalEdgeStyle;curved=1;" edge="1" parent="1">
          <mxGeometry width="50" height="50" relative="1" as="geometry">
            <mxPoint x="-30" y="380" as="sourcePoint" />
            <mxPoint x="660" y="820.0000000000002" as="targetPoint" />
          </mxGeometry>
        </mxCell>
        <mxCell id="Ef1C2Hg81jnyNyhxMtd8-2" value="" style="ellipse;whiteSpace=wrap;html=1;aspect=fixed;fillColor=#d5e8d4;strokeColor=none;" vertex="1" parent="1">
          <mxGeometry x="50" y="380" width="15" height="15" as="geometry" />
        </mxCell>
        <mxCell id="Ef1C2Hg81jnyNyhxMtd8-3" value="" style="ellipse;whiteSpace=wrap;html=1;aspect=fixed;fillColor=#d5e8d4;strokeColor=none;" vertex="1" parent="1">
          <mxGeometry x="182.5" y="387.5" width="15" height="15" as="geometry" />
        </mxCell>
        <mxCell id="Ef1C2Hg81jnyNyhxMtd8-4" value="" style="ellipse;whiteSpace=wrap;html=1;aspect=fixed;fillColor=#d5e8d4;strokeColor=none;" vertex="1" parent="1">
          <mxGeometry x="312.5" y="417.5" width="15" height="15" as="geometry" />
        </mxCell>
        <mxCell id="Ef1C2Hg81jnyNyhxMtd8-5" value="" style="ellipse;whiteSpace=wrap;html=1;aspect=fixed;fillColor=#d5e8d4;strokeColor=none;" vertex="1" parent="1">
          <mxGeometry x="432.5" y="460" width="15" height="15" as="geometry" />
        </mxCell>
        <mxCell id="Ef1C2Hg81jnyNyhxMtd8-6" value="" style="ellipse;whiteSpace=wrap;html=1;aspect=fixed;fillColor=#f8cecc;strokeColor=none;" vertex="1" parent="1">
          <mxGeometry x="550" y="550" width="15" height="15" as="geometry" />
        </mxCell>
        <mxCell id="Ef1C2Hg81jnyNyhxMtd8-7" value="" style="ellipse;whiteSpace=wrap;html=1;aspect=fixed;fillColor=#fff2cc;strokeColor=none;" vertex="1" parent="1">
          <mxGeometry x="620" y="637.5" width="15" height="15" as="geometry" />
        </mxCell>
        <mxCell id="Ef1C2Hg81jnyNyhxMtd8-8" value="" style="ellipse;whiteSpace=wrap;html=1;aspect=fixed;fillColor=#fff2cc;strokeColor=none;" vertex="1" parent="1">
          <mxGeometry x="650" y="730" width="15" height="15" as="geometry" />
        </mxCell>
        <mxCell id="Ef1C2Hg81jnyNyhxMtd8-9" value="&lt;font style=&quot;font-size: 10px;&quot;&gt;2023/1/5&lt;/font&gt;" style="text;html=1;strokeColor=none;fillColor=none;align=center;verticalAlign=middle;whiteSpace=wrap;rounded=0;" vertex="1" parent="1">
          <mxGeometry x="27.5" y="390" width="60" height="30" as="geometry" />
        </mxCell>
        <mxCell id="Ef1C2Hg81jnyNyhxMtd8-10" value="&lt;font style=&quot;font-size: 10px;&quot;&gt;2023/1/12&lt;br&gt;&lt;/font&gt;" style="text;html=1;strokeColor=none;fillColor=none;align=center;verticalAlign=middle;whiteSpace=wrap;rounded=0;" vertex="1" parent="1">
          <mxGeometry x="160" y="395" width="60" height="30" as="geometry" />
        </mxCell>
        <mxCell id="Ef1C2Hg81jnyNyhxMtd8-11" value="&lt;font style=&quot;font-size: 10px;&quot;&gt;2023/1/19&lt;br&gt;&lt;/font&gt;" style="text;html=1;strokeColor=none;fillColor=none;align=center;verticalAlign=middle;whiteSpace=wrap;rounded=0;" vertex="1" parent="1">
          <mxGeometry x="290" y="430" width="60" height="20" as="geometry" />
        </mxCell>
        <mxCell id="Ef1C2Hg81jnyNyhxMtd8-12" value="&lt;font style=&quot;font-size: 10px;&quot;&gt;2023/2&lt;br&gt;&lt;/font&gt;" style="text;html=1;strokeColor=none;fillColor=none;align=center;verticalAlign=middle;whiteSpace=wrap;rounded=0;" vertex="1" parent="1">
          <mxGeometry x="410" y="470" width="60" height="30" as="geometry" />
        </mxCell>
        <mxCell id="Ef1C2Hg81jnyNyhxMtd8-13" value="&lt;font style=&quot;font-size: 10px;&quot;&gt;2023/3&lt;br&gt;&lt;/font&gt;" style="text;html=1;strokeColor=none;fillColor=none;align=center;verticalAlign=middle;whiteSpace=wrap;rounded=0;" vertex="1" parent="1">
          <mxGeometry x="542.5" y="565" width="30" height="10" as="geometry" />
        </mxCell>
        <mxCell id="Ef1C2Hg81jnyNyhxMtd8-14" value="&lt;font style=&quot;font-size: 10px;&quot;&gt;2023/4&lt;br&gt;&lt;/font&gt;" style="text;html=1;strokeColor=none;fillColor=none;align=center;verticalAlign=middle;whiteSpace=wrap;rounded=0;" vertex="1" parent="1">
          <mxGeometry x="600" y="652.5" width="27.5" height="20" as="geometry" />
        </mxCell>
        <mxCell id="Ef1C2Hg81jnyNyhxMtd8-15" value="&lt;font style=&quot;font-size: 10px;&quot;&gt;2023/5&lt;br&gt;&lt;/font&gt;" style="text;html=1;strokeColor=none;fillColor=none;align=center;verticalAlign=middle;whiteSpace=wrap;rounded=0;" vertex="1" parent="1">
          <mxGeometry x="643.75" y="745" width="27.5" height="17.5" as="geometry" />
        </mxCell>
        <mxCell id="Ef1C2Hg81jnyNyhxMtd8-16" value="&lt;font style=&quot;font-size: 11px;&quot;&gt;Complete the EOF client implementation and testing&lt;/font&gt;" style="text;html=1;strokeColor=none;fillColor=none;align=center;verticalAlign=middle;whiteSpace=wrap;rounded=0;fontSize=10;" vertex="1" parent="1">
          <mxGeometry x="2.5" y="460" width="110" height="30" as="geometry" />
        </mxCell>
        <mxCell id="Ef1C2Hg81jnyNyhxMtd8-17" value="NOW!" style="text;html=1;strokeColor=none;fillColor=none;align=center;verticalAlign=middle;whiteSpace=wrap;rounded=0;fontSize=11;" vertex="1" parent="1">
          <mxGeometry x="-60" y="372.5" width="60" height="30" as="geometry" />
        </mxCell>
        <mxCell id="Ef1C2Hg81jnyNyhxMtd8-18" value="&lt;font style=&quot;font-size: 11px;&quot;&gt;Shanghai shadow forks&lt;/font&gt;" style="text;html=1;strokeColor=none;fillColor=none;align=center;verticalAlign=middle;whiteSpace=wrap;rounded=0;fontSize=10;" vertex="1" parent="1">
          <mxGeometry x="135" y="452.5" width="110" height="30" as="geometry" />
        </mxCell>
        <mxCell id="Ef1C2Hg81jnyNyhxMtd8-19" value="&lt;font style=&quot;font-size: 11px;&quot;&gt;Complete EOF cross-client interoperability&lt;/font&gt;" style="text;html=1;strokeColor=none;fillColor=none;align=center;verticalAlign=middle;whiteSpace=wrap;rounded=0;fontSize=10;" vertex="1" parent="1">
          <mxGeometry x="250" y="485" width="140" height="30" as="geometry" />
        </mxCell>
        <mxCell id="Ef1C2Hg81jnyNyhxMtd8-20" value="&lt;div&gt;More tests to make EOF and withdrawal stable enough&lt;/div&gt;&lt;div&gt;Withdrawals on public testnets&lt;/div&gt;" style="text;html=1;strokeColor=none;fillColor=none;align=center;verticalAlign=middle;whiteSpace=wrap;rounded=0;fontSize=11;" vertex="1" parent="1">
          <mxGeometry x="375" y="530" width="130" height="70" as="geometry" />
        </mxCell>
        <mxCell id="Ef1C2Hg81jnyNyhxMtd8-21" value="" style="endArrow=classic;html=1;rounded=0;strokeWidth=1;fontSize=11;" edge="1" parent="1">
          <mxGeometry width="50" height="50" relative="1" as="geometry">
            <mxPoint x="57.210000000000036" y="420" as="sourcePoint" />
            <mxPoint x="57.210000000000036" y="450" as="targetPoint" />
          </mxGeometry>
        </mxCell>
        <mxCell id="Ef1C2Hg81jnyNyhxMtd8-22" value="" style="endArrow=classic;html=1;rounded=0;strokeWidth=1;fontSize=11;" edge="1" parent="1">
          <mxGeometry x="1" y="10" width="50" height="50" relative="1" as="geometry">
            <mxPoint x="189.6899999999996" y="420" as="sourcePoint" />
            <mxPoint x="189.6899999999996" y="450" as="targetPoint" />
            <mxPoint x="-10" y="10" as="offset" />
          </mxGeometry>
        </mxCell>
        <mxCell id="Ef1C2Hg81jnyNyhxMtd8-23" value="" style="endArrow=classic;html=1;rounded=0;strokeWidth=1;fontSize=11;" edge="1" parent="1">
          <mxGeometry x="1" y="-86" width="50" height="50" relative="1" as="geometry">
            <mxPoint x="319.6899999999996" y="450" as="sourcePoint" />
            <mxPoint x="319.6899999999996" y="480" as="targetPoint" />
            <mxPoint x="36" y="70" as="offset" />
          </mxGeometry>
        </mxCell>
        <mxCell id="Ef1C2Hg81jnyNyhxMtd8-24" value="" style="endArrow=classic;html=1;rounded=0;strokeWidth=1;fontSize=11;" edge="1" parent="1">
          <mxGeometry x="1" y="-90" width="50" height="50" relative="1" as="geometry">
            <mxPoint x="439.6899999999996" y="500" as="sourcePoint" />
            <mxPoint x="439.6899999999996" y="530" as="targetPoint" />
            <mxPoint x="83" y="90" as="offset" />
          </mxGeometry>
        </mxCell>
        <mxCell id="Ef1C2Hg81jnyNyhxMtd8-25" value="&lt;font color=&quot;#ff3333&quot;&gt;Shanghai Hardfork! í ¼í¾‰&lt;/font&gt;&lt;br&gt;Withdrawals on the Mainnet" style="text;html=1;strokeColor=none;fillColor=none;align=center;verticalAlign=middle;whiteSpace=wrap;rounded=0;fontSize=11;" vertex="1" parent="1">
          <mxGeometry x="470" y="607.5" width="141.25" height="30" as="geometry" />
        </mxCell>
        <mxCell id="Ef1C2Hg81jnyNyhxMtd8-26" value="Fully tested EIP-4844 (multiple mainnet shadow forks and EIP-4844 on public testnets)" style="text;html=1;strokeColor=none;fillColor=none;align=center;verticalAlign=middle;whiteSpace=wrap;rounded=0;fontSize=11;" vertex="1" parent="1">
          <mxGeometry x="671.25" y="615" width="132.5" height="60" as="geometry" />
        </mxCell>
        <mxCell id="Ef1C2Hg81jnyNyhxMtd8-27" value="" style="endArrow=classic;html=1;rounded=0;strokeWidth=1;fontSize=11;" edge="1" parent="1">
          <mxGeometry x="-1" y="48" width="50" height="50" relative="1" as="geometry">
            <mxPoint x="641.25" y="644.73" as="sourcePoint" />
            <mxPoint x="673.25" y="644.73" as="targetPoint" />
            <mxPoint x="21" y="40" as="offset" />
          </mxGeometry>
        </mxCell>
        <mxCell id="Ef1C2Hg81jnyNyhxMtd8-28" value="&lt;div&gt;&lt;font color=&quot;#ff3333&quot;&gt;Cancun Hardfork! í ¼í¾‰&lt;/font&gt;&lt;br&gt;EIP-4844 on the Mainnet&lt;/div&gt;" style="text;html=1;strokeColor=none;fillColor=none;align=center;verticalAlign=middle;whiteSpace=wrap;rounded=0;fontSize=11;" vertex="1" parent="1">
          <mxGeometry x="700" y="722.5" width="130" height="30" as="geometry" />
        </mxCell>
        <mxCell id="Ef1C2Hg81jnyNyhxMtd8-29" value="" style="endArrow=classic;html=1;rounded=0;strokeWidth=1;fontSize=11;" edge="1" parent="1">
          <mxGeometry x="1" y="-90" width="50" height="50" relative="1" as="geometry">
            <mxPoint x="557.2699999999995" y="580" as="sourcePoint" />
            <mxPoint x="557.2699999999995" y="610.0000000000002" as="targetPoint" />
            <mxPoint x="83" y="90" as="offset" />
          </mxGeometry>
        </mxCell>
        <mxCell id="Ef1C2Hg81jnyNyhxMtd8-30" value="" style="endArrow=classic;html=1;rounded=0;strokeWidth=1;fontSize=11;" edge="1" parent="1">
          <mxGeometry x="-1" y="48" width="50" height="50" relative="1" as="geometry">
            <mxPoint x="670" y="737.23" as="sourcePoint" />
            <mxPoint x="702.5" y="737.23" as="targetPoint" />
            <mxPoint x="21" y="40" as="offset" />
          </mxGeometry>
        </mxCell>
      </root>
    </mxGraphModel>
  </diagram>
</mxfile>
